<svg xmlns="http://www.w3.org/2000/svg" viewBox="0 0 64 64" role="img" aria-label="gloves">
  <rect width="64" height="64" rx="8" fill="#090705"/>
  <path d="M20 11c2 0 4 2 4 4v17h3V10c0-2 2-4 4-4s4 2 4 4v22h3V12c0-2 2-4 4-4s4 2 4 4v26l3-6c1-2 4-3 6-2 2 1 3 4 2 6l-7 15c-2 5-7 8-13 8H26c-8 0-14-6-14-14V17c0-3 3-6 8-6Z" fill="#d9a84d"/>
  <path d="M20 11c2 0 4 2 4 4v17h3V10c0-2 2-4 4-4s4 2 4 4v22h3V12c0-2 2-4 4-4s4 2 4 4v26l3-6c1-2 4-3 6-2 2 1 3 4 2 6l-7 15c-2 5-7 8-13 8H26c-8 0-14-6-14-14V17c0-3 3-6 8-6Z" fill="none" stroke="#fff4bd" stroke-width="2" opacity=".55"/>
</svg>
